<?xml version="1.0" encoding="utf-8"?>
<!-- Generator: Adobe Illustrator 27.7.0, SVG Export Plug-In . SVG Version: 6.00 Build 0)  -->
<svg version="1.1" id="uuid-636b4d1d-9d98-49ff-a786-85f602c50e12"
	 xmlns="http://www.w3.org/2000/svg" xmlns:xlink="http://www.w3.org/1999/xlink" x="0px" y="0px" viewBox="0 0 400 57"
	 style="enable-background:new 0 0 400 57;" xml:space="preserve">
<style type="text/css">
	.logoSt0{fill:#97a9c8;}
</style>
<g id="uuid-96a20a90-619d-4147-a63c-f7927f47773c">
	<g>
		<path class="logoSt0" d="M22.5,10.4c0.6-0.5,1.6-0.7,3-0.7c1.5,0,3,0.2,4.4,0.4l1.7-9.2C26.5,0.3,22.6,0,19.9,0
			c-3.4,0-5.9,0.4-7.6,1.1c-1.6,0.6-3,1.7-4.1,3c-1,1.4-1.7,3.1-2,4.8c-0.3,1.8-0.5,3.6-0.5,5.4v1.8H0v11.2h5.7v28.7H21V27.4h7.3
			V16.2H21c0-1.2,0-2.3,0.2-3.5C21.4,11.8,21.8,11,22.5,10.4L22.5,10.4z"/>
		<path class="logoSt0" d="M57.8,35.4c0,3.6-0.6,6.2-1.8,7.6c-0.5,0.7-1.2,1.2-2,1.6c-0.8,0.4-1.6,0.5-2.5,0.5c-1.7,0-3-0.5-3.9-1.6
			c-0.9-1-1.4-2.8-1.4-5.3v-22H30.9v25.4c0,5.2,1.2,9.1,3.6,11.7s5.7,3.8,9.9,3.8c3.2,0,5.8-0.6,8-1.7s4.3-3,6.4-5.7v6.5h14.3v-40
			H57.8L57.8,35.4L57.8,35.4z"/>
		<path class="logoSt0" d="M99,46.2c-1.2,0-2.1-0.4-2.6-1.3c-0.3-0.5-0.5-1.7-0.5-3.4V27.4h8.4V16.2h-8.4V0.9L80.5,8.8v7.3h-5.6v11.2
			h5.6v14.1c0,4.5,0.4,7.7,1.3,9.7c0.8,1.9,2.2,3.5,4,4.5c1.8,1,4.6,1.5,8.4,1.5c3.6,0,7.1-0.5,10.6-1.2l-1.1-10.6
			C101.7,45.8,100.1,46.2,99,46.2z"/>
		<path class="logoSt0" d="M158.3,15.2c-1.9-0.1-3.8,0.5-5.4,1.6c-1.5,1.1-2.9,3-4.3,5.8v-6.5H133v19.2c0,3.6-0.6,6.2-1.8,7.6
			c-0.5,0.7-1.2,1.2-2,1.6c-0.8,0.4-1.6,0.5-2.5,0.5c-1.7,0-3-0.5-3.9-1.6c-0.9-1-1.4-2.8-1.4-5.3v-22h-15.4v25.4
			c0,5.2,1.2,9.1,3.6,11.7s5.7,3.8,9.9,3.8c3.2,0,5.8-0.6,8-1.7s4.3-3,6.5-5.7v6.5h15.7V42.7c0-6.4,0.8-10.8,2.4-13.1
			c0.5-0.8,1.2-1.4,2-1.9c0.8-0.4,1.7-0.6,2.7-0.6c1.1,0,2.5,0.4,4.3,1.1l4.7-10.9C163,15.9,160.6,15.2,158.3,15.2L158.3,15.2z"/>
		<path class="logoSt0" d="M190.6,46.9c-1.3,0.7-2.8,1.1-4.3,1.1c-1.1,0-2.2-0.2-3.2-0.6s-1.9-1.1-2.6-2c-1.1-1.2-1.7-3-2-5.5h30.6v-1.7
			c0-5.3-0.9-9.5-2.6-12.8c-1.7-3.2-4.3-5.9-7.6-7.5c-3.3-1.7-7.8-2.6-13.5-2.6c-7,0-12.6,1.9-16.5,5.8s-6,8.9-6,15.2
			c0,4.4,1,8.2,3,11.5c2,3.2,4.5,5.6,7.5,7.1S180.7,57,186,57c6.1,0,10.8-0.9,14-2.6c3.2-1.7,6-4.6,8.3-8.6l-15.1-1.4
			C192.5,45.3,191.6,46.2,190.6,46.9L190.6,46.9z M180.4,27.2c0.7-0.9,1.5-1.7,2.6-2.2s2.1-0.8,3.3-0.7c2.1,0,3.8,0.6,5.1,1.9
			s2.1,3.4,2.4,6.4h-15.1C178.8,30.2,179.4,28.4,180.4,27.2z"/>
		<path class="logoSt0" d="M243.6,32.5c-2.5-1-6.3-1.8-11.3-2.4c-3.4-0.4-5.5-0.9-6.5-1.4s-1.5-1.2-1.5-2.2c0-0.4,0.1-0.9,0.3-1.3
			s0.5-0.7,0.9-1c0.8-0.6,2.1-0.9,3.8-0.9c1.5,0,3.1,0.4,4.4,1.2c0.9,0.7,1.6,1.7,1.9,2.8l14.5-1.4c-0.8-2.3-2.1-4.4-3.8-6.2
			c-1.6-1.6-3.5-2.7-5.7-3.4c-2.3-0.7-5.8-1.1-10.5-1.1c-4.5,0-8.1,0.5-10.8,1.4c-2.5,0.8-4.7,2.3-6.3,4.3c-1.5,1.9-2.4,4.3-2.3,6.8
			c0,2.3,0.7,4.6,2.1,6.4c1.3,1.8,3.1,3.2,5.2,4c2.1,0.8,5.8,1.7,11.1,2.6c3.6,0.6,5.7,1.2,6.6,1.6c1.1,0.6,1.7,1.5,1.7,2.5
			c0,0.5-0.1,1-0.4,1.4c-0.2,0.4-0.6,0.8-1,1.1c-1.1,0.9-2.7,1.3-4.8,1.3c-1.9,0-3.4-0.4-4.5-1.2c-1.1-0.8-2-2.1-2.6-3.9L208.9,45
			c0.7,3.6,2.9,6.8,5.9,8.9c3.1,2.1,8.3,3.1,15.6,3.1c5.1,0,9.2-0.7,12.2-1.9c3-1.3,5.2-3,6.6-5.2c1.3-2,2.1-4.3,2.1-6.7
			c0-2.2-0.7-4.4-2-6.3C247.9,34.9,245.9,33.3,243.6,32.5L243.6,32.5z"/>
		<path class="logoSt0" d="M281.3,15.2c-2.5-0.1-5,0.4-7.3,1.4c-2,0.9-4.1,2.5-6.2,4.6V0.9h-15.3v55.2h15.3V36.9c0-3.6,0.6-6.2,1.7-7.6
			c0.5-0.7,1.2-1.2,2-1.6c0.8-0.4,1.6-0.5,2.5-0.5c1.7,0,3,0.5,3.9,1.6c0.9,1,1.4,2.8,1.4,5.3v22h15.4V30.7c0-5.2-1.2-9.1-3.6-11.7
			C288.7,16.5,285.5,15.2,281.3,15.2L281.3,15.2z"/>
		<path class="logoSt0" d="M312.2,0.9h-15.3v10.4h15.3V0.9z"/>
		<path class="logoSt0" d="M351.2,46.2c-1.2,0-2.1-0.4-2.6-1.3c-0.3-0.5-0.5-1.7-0.5-3.4V27.4h8.4V16.2h-8.4V0.9l-15.3,7.9v7.3h-5.6v0.2
			c-1.7-0.7-3.5-1.1-5.3-1.1c-1.9-0.1-3.8,0.5-5.4,1.6c-1.4,1-2.8,2.9-4.2,5.7v-6.4h-15.3v40h16.3V42.7c0-6.4,0.8-10.8,2.4-13.1
			c0.5-0.8,1.2-1.4,2-1.9c0.8-0.4,1.7-0.6,2.7-0.6c1,0,2.5,0.4,4.3,1.1l2.6-6.1v5.2h5.6v14.1c0,4.5,0.4,7.7,1.3,9.7
			c0.8,1.9,2.2,3.5,4,4.5c1.8,1,4.6,1.5,8.4,1.5c3.6,0,7.1-0.5,10.6-1.2l-1.1-10.6C353.9,45.8,352.3,46.2,351.2,46.2L351.2,46.2z"/>
		<path class="logoSt0" d="M398,36.9c-1.4-2-3.4-3.5-5.7-4.4c-2.5-1-6.3-1.8-11.3-2.4c-3.4-0.4-5.5-0.9-6.5-1.4s-1.5-1.2-1.5-2.2
			c0-0.4,0.1-0.9,0.3-1.3c0.2-0.4,0.5-0.7,0.9-1c0.8-0.6,2-0.9,3.8-0.9c1.5,0,3,0.4,4.4,1.2c0.9,0.7,1.6,1.7,1.9,2.8l14.5-1.4
			c-0.8-2.3-2.1-4.4-3.8-6.2c-1.6-1.6-3.5-2.7-5.7-3.4c-2.3-0.7-5.8-1.1-10.5-1.1c-4.5,0-8.1,0.5-10.8,1.4c-2.5,0.8-4.6,2.3-6.3,4.3
			c-1.5,1.9-2.4,4.3-2.3,6.8c0,2.3,0.7,4.6,2.1,6.4c1.3,1.8,3.1,3.2,5.2,4c2.1,0.8,5.8,1.7,11.1,2.6c3.5,0.6,5.7,1.2,6.6,1.6
			c1.1,0.6,1.7,1.5,1.7,2.5c0,0.5-0.1,1-0.4,1.4s-0.6,0.8-1,1.1c-1.1,0.9-2.7,1.3-4.8,1.3c-1.9,0-3.4-0.4-4.5-1.2
			c-1.1-0.8-2-2.1-2.6-3.9L357.6,45c0.9,3.8,2.9,6.8,6,8.9c3.1,2.1,8.3,3.1,15.6,3.1c5.1,0,9.2-0.7,12.2-1.9c3-1.3,5.2-3,6.6-5.2
			c1.3-2,2-4.3,2.1-6.7C400,40.9,399.3,38.7,398,36.9L398,36.9z"/>
	</g>
</g>
</svg>
